# xmcd CD database file
# Copyright (C) 1997 Ti Kan
# 
# Track frame offsets:
#     150
#     17050
#     38625
#     52805
#     73832
#     88775
#     106410
#     126522
#     145650
#     168430
#     190700
#     212775
# 
# Disc length: 3042 seconds
# 
# Revision: 1
# Processed by: cddbd v1.4b41PL1 Copyright (c) Steve Scherf et al.
# Submitted via: DiscPlay 4.0.4
# 
DISCID=a60be00c
DTITLE=Oddvar Solheim and The Hard Luck Blues Band - To The Bone
DYEAR=1900
DGENRE=
TTITLE0=I'm In Love With You Baby
TTITLE1=Hard Luck Blues
TTITLE2=Two Bones And A Pick
TTITLE3=Bald Headed Boogie Man
TTITLE4=It's Too Late
TTITLE5=Linda Lu
TTITLE6=Trouble, Trouble
TTITLE7=Stoney Pony Blues
TTITLE8=I Am The Blues
TTITLE9=Mr. Big Head
TTITLE10=Lost In My Feelings
TTITLE11=Put It All In There
EXTD=
EXTT0=
EXTT1=
EXTT2=
EXTT3=
EXTT4=
EXTT5=
EXTT6=
EXTT7=
EXTT8=
EXTT9=
EXTT10=
EXTT11=
PLAYORDER=
